{
	"asset":{
		"generator":"Khronos glTF Blender I/O v4.0.44",
		"version":"2.0"
	},
	"extensionsUsed":[
		"KHR_materials_emissive_strength",
		"KHR_materials_specular",
		"KHR_materials_ior"
	],
	"scene":0,
	"scenes":[
		{
			"name":"Scene",
			"nodes":[
				0,
				1,
				2
			]
		}
	],
	"nodes":[
		{
			"mesh":0,
			"name":"Plane",
			"rotation":[
				-0.27059805393218994,
				0.27059805393218994,
				-0.6532815098762512,
				0.6532815098762512
			],
			"scale":[
				7.0361175537109375,
				2.6398708820343018,
				2.6398708820343018
			],
			"translation":[
				-2.701533079147339,
				6.598865032196045,
				5.530588150024414
			]
		},
		{
			"mesh":1,
			"name":"Box001",
			"scale":[
				0.02539999969303608,
				0.018327724188566208,
				0.020243074744939804
			],
			"translation":[
				7.118819713592529,
				0,
				-0.0049714017659425735
			]
		},
		{
			"mesh":2,
			"name":"Box002",
			"scale":[
				0.02539999969303608,
				0.018327724188566208,
				0.020243074744939804
			],
			"translation":[
				7.118819713592529,
				0,
				-0.004971382673829794
			]
		}
	],
	"materials":[
		{
			"doubleSided":true,
			"emissiveFactor":[
				1,
				1,
				1
			],
			"extensions":{
				"KHR_materials_emissive_strength":{
					"emissiveStrength":20
				}
			},
			"name":"Material.002",
			"pbrMetallicRoughness":{
				"baseColorFactor":[
					0,
					0,
					0,
					1
				]
			}
		},
		{
			"doubleSided":true,
			"name":"CardboardPlain001_4K",
			"pbrMetallicRoughness":{}
		},
		{
			"doubleSided":true,
			"extensions":{
				"KHR_materials_specular":{
					"specularFactor":0
				},
				"KHR_materials_ior":{
					"ior":1.4500000476837158
				}
			},
			"name":"Material #25",
			"pbrMetallicRoughness":{
				"baseColorFactor":[
					1,
					0.44635269045829773,
					0.07995185256004333,
					1
				],
				"roughnessFactor":0.858578622341156
			}
		}
	],
	"meshes":[
		{
			"name":"Plane",
			"primitives":[
				{
					"attributes":{
						"POSITION":0,
						"NORMAL":1,
						"TEXCOORD_0":2
					},
					"indices":3,
					"material":0
				}
			]
		},
		{
			"name":"Mesh",
			"primitives":[
				{
					"attributes":{
						"POSITION":4,
						"NORMAL":5,
						"TEXCOORD_0":6
					},
					"indices":7,
					"material":1
				}
			]
		},
		{
			"name":"Mesh.001",
			"primitives":[
				{
					"attributes":{
						"POSITION":8,
						"NORMAL":9,
						"TEXCOORD_0":10
					},
					"indices":11,
					"material":2
				}
			]
		}
	],
	"accessors":[
		{
			"bufferView":0,
			"componentType":5126,
			"count":4,
			"max":[
				1,
				0,
				1
			],
			"min":[
				-1,
				0,
				-1
			],
			"type":"VEC3"
		},
		{
			"bufferView":1,
			"componentType":5126,
			"count":4,
			"type":"VEC3"
		},
		{
			"bufferView":2,
			"componentType":5126,
			"count":4,
			"type":"VEC2"
		},
		{
			"bufferView":3,
			"componentType":5123,
			"count":6,
			"type":"SCALAR"
		},
		{
			"bufferView":4,
			"componentType":5126,
			"count":3838,
			"max":[
				19.538375854492188,
				27.277992248535156,
				19.538375854492188
			],
			"min":[
				-19.538375854492188,
				0,
				-19.538375854492188
			],
			"type":"VEC3"
		},
		{
			"bufferView":5,
			"componentType":5126,
			"count":3838,
			"type":"VEC3"
		},
		{
			"bufferView":6,
			"componentType":5126,
			"count":3838,
			"type":"VEC2"
		},
		{
			"bufferView":7,
			"componentType":5123,
			"count":19968,
			"type":"SCALAR"
		},
		{
			"bufferView":8,
			"componentType":5126,
			"count":2402,
			"max":[
				19.757415771484375,
				27.406925201416016,
				3.9484944343566895
			],
			"min":[
				-19.71136474609375,
				16.051969528198242,
				-3.9484944343566895
			],
			"type":"VEC3"
		},
		{
			"bufferView":9,
			"componentType":5126,
			"count":2402,
			"type":"VEC3"
		},
		{
			"bufferView":10,
			"componentType":5126,
			"count":2402,
			"type":"VEC2"
		},
		{
			"bufferView":11,
			"componentType":5123,
			"count":14400,
			"type":"SCALAR"
		}
	],
	"bufferViews":[
		{
			"buffer":0,
			"byteLength":48,
			"byteOffset":0,
			"target":34962
		},
		{
			"buffer":0,
			"byteLength":48,
			"byteOffset":48,
			"target":34962
		},
		{
			"buffer":0,
			"byteLength":32,
			"byteOffset":96,
			"target":34962
		},
		{
			"buffer":0,
			"byteLength":12,
			"byteOffset":128,
			"target":34963
		},
		{
			"buffer":0,
			"byteLength":46056,
			"byteOffset":140,
			"target":34962
		},
		{
			"buffer":0,
			"byteLength":46056,
			"byteOffset":46196,
			"target":34962
		},
		{
			"buffer":0,
			"byteLength":30704,
			"byteOffset":92252,
			"target":34962
		},
		{
			"buffer":0,
			"byteLength":39936,
			"byteOffset":122956,
			"target":34963
		},
		{
			"buffer":0,
			"byteLength":28824,
			"byteOffset":162892,
			"target":34962
		},
		{
			"buffer":0,
			"byteLength":28824,
			"byteOffset":191716,
			"target":34962
		},
		{
			"buffer":0,
			"byteLength":19216,
			"byteOffset":220540,
			"target":34962
		},
		{
			"buffer":0,
			"byteLength":28800,
			"byteOffset":239756,
			"target":34963
		}
	],
	"buffers":[
		{
			"byteLength":268556,
			"uri":"uploads_files_3928648_box.bin"
		}
	]
}
